<?xml version="1.0" encoding="UTF-8"?>
<svg version="1.1" viewBox="0 0 698.36 209.03" xmlns="http://www.w3.org/2000/svg"><path d="m233.85 105.65h20.59v-77.65h-20.59zm-85.38-5.35c-0.66-1-1.07-2.75-1.21-5.41-0.1-3.52-0.15-6.52-0.15-9v-35.59c0-9.333-3.313-15.697-9.94-19.09a49.55 49.55 0 0 0-22.76-5.06c-13.12 0-22.377 3.42-27.77 10.26-3.38 4.373-5.287 9.953-5.72 16.74h19.6a14.677 14.677 0 0 1 2.88-7.12c2-2.38 5.443-3.567 10.33-3.56 4.34 0 7.62 0.6 9.86 1.81s3.36 3.41 3.36 6.6c0 2.6-1.46 4.53-4.38 5.76a31.617 31.617 0 0 1-8.11 1.78l-7 0.86c-7.9 1-13.88 2.667-17.94 5-7.393 4.247-11.09 11.153-11.09 20.72 0 7.333 2.307 13.023 6.92 17.07 4.613 4.047 10.453 6.047 17.52 6a29.4 29.4 0 0 0 14.9-3.78 41.784 41.784 0 0 0 9.75-7.77c0.14 1.76 0.33 3.33 0.57 4.71a22.795 22.795 0 0 0 1.28 4.42h22.09v-3a7.26 7.26 0 0 1-2.99-2.33zm-21.59-24.84c-0.153 6.787-2.097 11.453-5.83 14a21.231 21.231 0 0 1-12.26 3.85 11.08 11.08 0 0 1-7.12-2.32c-1.96-1.54-2.94-4.047-2.94-7.52a9.28 9.28 0 0 1 4.8-8.62c1.89-1.09 5-2 9.33-2.77l4.63-0.86a33.263 33.263 0 0 0 5.45-1.39 22.573 22.573 0 0 0 3.94-2zm-71.73-36.27c-3.033-5.46-7.033-9.213-12-11.26a26.67 26.67 0 0 0-10.12-1.78c-10.54 0-18.68 3.93-24.42 11.79s-8.61 17.563-8.61 29.11c0 12 3 21.487 9 28.46 6 6.973 13.967 10.477 23.9 10.51 6.46 0 11.71-1.543 15.75-4.63a25.002 25.002 0 0 0 6.27-7.48v5c0 7.413-0.807 12.687-2.42 15.82-2.467 4.88-7.36 7.323-14.68 7.33-5.18 0-8.847-0.927-11-2.78a9.12 9.12 0 0 1-2.77-5.13h-22.19c0.667 7.74 4.133 13.56 10.4 17.46s14.367 5.847 24.3 5.84c16.433 0 27.547-4.37 33.34-13.11 3.38-5.08 5.067-12.633 5.06-22.66v-73.68h-19.81zm-5 44.42a15.61 15.61 0 0 1-12 5.38c-7.093 0-12.01-3.277-14.75-9.83a30.06 30.06 0 0 1-2.28-12 35.8 35.8 0 0 1 2.13-13.19c2.667-6.667 7.563-10 14.69-10a15.211 15.211 0 0 1 12.43 5.68c3.093 3.847 4.64 9.453 4.64 16.82 0 7.833-1.63 13.56-4.89 17.18zm273.45-51.16c-5.087-4.2-11.627-6.3-19.62-6.3-6.387 0-11.66 1.567-15.82 4.7a34.402 34.402 0 0 0-7.38 8.62v-11.33h-19.67v77.51h20.31v-42a30.282 30.282 0 0 1 2-11.83c2.547-5.84 7.24-8.76 14.08-8.76 5.56 0 9.33 2 11.31 6 1.09 2.18 1.63 5.32 1.63 9.4v47.19h20.8v-52.29c-0.013-9.727-2.56-16.697-7.64-20.91zm-126.84-6.16a25.909 25.909 0 0 0-16.21 5.2 32.693 32.693 0 0 0-7 8v-11.49h-19.48v108.23h20.09v-40.47a30.002 30.002 0 0 0 6.6 7.49c4.107 3.08 9.27 4.623 15.49 4.63 9.753 0 17.727-3.587 23.92-10.76 6.193-7.173 9.29-17.6 9.29-31.28 0-12.967-3.17-22.8-9.51-29.5a30.698 30.698 0 0 0-23.19-10.05zm7.24 58c-2.993 4.373-7.347 6.557-13.06 6.55a16.62 16.62 0 0 1-10.24-3.19c-4.853-3.66-7.277-9.993-7.27-19a39.359 39.359 0 0 1 2.16-14.11c2.78-6.987 7.89-10.477 15.33-10.47 6.187 0 10.663 2.303 13.43 6.91a30.285 30.285 0 0 1 4.14 15.88c0.013 7.253-1.483 13.063-4.49 17.43zm40.42-84.29a10.58 10.58 0 1 0 10.58 10.57 10.567 10.567 0 0 0-6.532-9.768 10.571 10.571 0 0 0-4.048-0.802zm145.85 39.19c-3.047-5.46-7.03-9.213-11.95-11.26a26.68 26.68 0 0 0-10.18-1.78c-10.527 0-18.663 3.93-24.41 11.79s-8.617 17.563-8.61 29.11c0 12 2.98 21.487 8.94 28.46 5.96 6.973 13.93 10.477 23.91 10.51 6.46 0 11.707-1.543 15.74-4.63a24.994 24.994 0 0 0 6.28-7.48v5c0 7.413-0.81 12.687-2.43 15.82-2.473 4.88-7.367 7.323-14.68 7.33-5.173 0-8.84-0.927-11-2.78a9.132 9.132 0 0 1-2.78-5.13h-22.13c0.667 7.74 4.137 13.56 10.41 17.46s14.373 5.847 24.3 5.84c16.427 0 27.54-4.37 33.34-13.11 3.373-5.08 5.06-12.633 5.06-22.66v-73.68h-19.81zm-5 44.42a15.626 15.626 0 0 1-12 5.38c-7.1 0-12.02-3.277-14.76-9.83a30.245 30.245 0 0 1-2.27-12 35.808 35.808 0 0 1 2.13-13.19c2.667-6.667 7.563-10 14.69-10a15.187 15.187 0 0 1 12.42 5.68c3.1 3.847 4.65 9.453 4.65 16.82 0 7.833-1.63 13.56-4.89 17.18zm194-83.61a10.58 10.58 0 1 0 10.58 10.57 10.57 10.57 0 0 0-10.6-10.57zm69.83 37.83a24.726 24.726 0 0 0-8.91-8.58 24.997 24.997 0 0 0-12.49-3.1c-10.213 0-18.373 3.8-24.48 11.4s-9.16 18.027-9.16 31.28c0 11.487 3.103 20.903 9.31 28.25 6.207 7.347 13.84 11.013 22.9 11 5.507 0 10.117-1.047 13.83-3.14a28.651 28.651 0 0 0 9.9-10v10.71h19.7v-104.87h-20.6zm-3.92 46.74c-2.993 4.28-7.367 6.417-13.12 6.41s-10.04-2.153-12.86-6.44c-2.82-4.3-4.233-10.037-4.24-17.21 0-6.667 1.39-12.237 4.17-16.71s7.14-6.717 13.08-6.73a15.459 15.459 0 0 1 10.26 3.76c4.82 4.047 7.23 10.82 7.23 20.32 0 6.793-1.507 12.327-4.52 16.6zm50.15-80.84a9.774 9.774 0 0 0-7.21-3 10 10 0 0 0-7 2.77 9.725 9.725 0 0 0-3.18 7.43 10.217 10.217 0 0 0 2.873 7.425 10.216 10.216 0 0 0 11.313 2.296 10.216 10.216 0 0 0 5.541-5.717c0.494-1.275 0.726-2.637 0.683-4.004a9.871 9.871 0 0 0-3.02-7.2zm-1.27 13.22a8.336 8.336 0 0 1-9.168 1.843 8.336 8.336 0 0 1-2.722-1.843 8.462 8.462 0 0 1-0.05-11.94 8.43 8.43 0 0 1 14.4 5.91 8.226 8.226 0 0 1-2.46 6.03zm-1.32-1c-0.01-0.11-0.01-0.22 0-0.33v-0.97a3.071 3.071 0 0 0-1-2.54 3.999 3.999 0 0 0-1.61-0.66 3.612 3.612 0 0 0 2-0.76 2.466 2.466 0 0 0 0.8-2.05 2.842 2.842 0 0 0-1.51-2.7 5.29 5.29 0 0 0-2.23-0.58h-5.49v11.29h3v-4h1.27c0.341 8e-3 0.678 0.07 1 0.18a1.352 1.352 0 0 1 0.73 0.82c0.131 0.451 0.195 0.92 0.19 1.39a7.47 7.47 0 0 0 0.21 1.61h2.83l-0.12-0.32a1.967 1.967 0 0 1-0.11-0.36zm-3.36-5.8a2.81 2.81 0 0 1-1.62 0.41h-1.15v-3.26h0.72a4.88 4.88 0 0 1 1.72 0.24 1.277 1.277 0 0 1 0.91 1.28 1.558 1.558 0 0 1-0.58 1.35zm-222.68 17.85-16.53 57.29-16.22-57.29h-22.8l27.86 77.65h21.41l28-77.67zm102.26 77.65h20.6v-77.65h-20.6zm-44.26-80.14c-13.333 0-23.287 4.103-29.86 12.31s-9.85 17.913-9.83 29.12c0 11.387 3.277 21.127 9.83 29.22 6.553 8.093 16.507 12.14 29.86 12.14 13.333 0 23.287-4.047 29.86-12.14 6.573-8.093 9.85-17.833 9.83-29.22 0-11.2-3.277-20.907-9.83-29.12s-16.507-12.317-29.86-12.31zm13.61 59.43c-3.193 4.22-7.753 6.33-13.68 6.33s-10.5-2.11-13.72-6.33c-3.207-4.22-4.81-10.22-4.81-18s1.603-13.78 4.81-18c3.193-4.193 7.757-6.29 13.69-6.29s10.493 2.097 13.68 6.29c3.18 4.2 4.77 10.2 4.77 18s-1.59 13.8-4.77 18zm-501.92 80.35a8.43 8.43 0 0 0-1.18-3.23 10.37 10.37 0 0 0-2.28-2.58 10.693 10.693 0 0 0-6.72-2.35 12.008 12.008 0 0 0-5.87 1.34 11.058 11.058 0 0 0-3.91 3.59 15.743 15.743 0 0 0-2.19 5.12 25.806 25.806 0 0 0-0.68 5.93 24.048 24.048 0 0 0 0.68 5.71 15.511 15.511 0 0 0 2.19 5 11.268 11.268 0 0 0 3.91 3.56 12.004 12.004 0 0 0 5.87 1.33 9.447 9.447 0 0 0 7.34-2.9 13.361 13.361 0 0 0 3.23-7.53h9.92a23.596 23.596 0 0 1-2 7.89 18.47 18.47 0 0 1-10.57 9.81c-2.527 0.92-5.2 1.374-7.89 1.34a23.45 23.45 0 0 1-9.65-1.89 21.11 21.11 0 0 1-7.18-5.15 22.859 22.859 0 0 1-4.5-7.7 28.321 28.321 0 0 1-1.56-9.46 29.27 29.27 0 0 1 1.56-9.65 23.466 23.466 0 0 1 4.5-7.83 20.764 20.764 0 0 1 7.18-5.22 25 25 0 0 1 16.89-0.77 19.65 19.65 0 0 1 6.13 3.23 17.245 17.245 0 0 1 4.47 5.25 18.789 18.789 0 0 1 2.22 7.18zm47.94 30.91h-8.81v-4.69h-0.2a11.003 11.003 0 0 1-4.56 4.24 13 13 0 0 1-5.74 1.37 15.824 15.824 0 0 1-6.1-1 9.002 9.002 0 0 1-3.75-2.81 10.709 10.709 0 0 1-1.92-4.37 27.157 27.157 0 0 1-0.56-5.71v-20.75h9.26v19c0 2.78 0.447 4.857 1.34 6.23s2.427 2.04 4.6 2c2.52 0 4.347-0.75 5.48-2.25s1.697-3.967 1.69-7.4v-17.58h9.27zm7.3-46.55h9.26v46.57h-9.26zm28.31 12.83h6.76v6.17h-6.78v16.7a4.57 4.57 0 0 0 0.78 3.13c0.52 0.52 1.57 0.78 3.13 0.78 0.963 6e-3 1.924-0.081 2.87-0.26v7.24c-0.864 0.135-1.736 0.222-2.61 0.26-1 0-1.89 0.06-2.8 0.06a26.412 26.412 0 0 1-4.08-0.29 9.278 9.278 0 0 1-3.39-1.17 6.36 6.36 0 0 1-2.32-2.45 8.67 8.67 0 0 1-0.84-4.11v-19.89h-5.61v-6.2h5.65v-10.08h9.26zm42.85 33.72h-8.81v-4.69h-0.19a11.063 11.063 0 0 1-4.57 4.24 13 13 0 0 1-5.74 1.37 15.826 15.826 0 0 1-6.1-1 9.158 9.158 0 0 1-3.75-2.81 10.847 10.847 0 0 1-1.92-4.37 27.174 27.174 0 0 1-0.55-5.71v-20.75h9.26v19c0 2.78 0.443 4.857 1.33 6.23 0.89 1.37 2.43 2 4.6 2 2.52 0 4.347-0.75 5.48-2.25s1.7-3.967 1.7-7.4v-17.58h9.26zm7.04-33.72h8.81v6.26h0.13a11.253 11.253 0 0 1 1.76-2.9 11.706 11.706 0 0 1 2.54-2.28 12.414 12.414 0 0 1 3.1-1.47c1.087-0.345 2.22-0.52 3.36-0.52 0.679 2e-3 1.354 0.11 2 0.32v8.61c-0.43-0.08-0.95-0.16-1.56-0.22-0.584-0.067-1.172-0.1-1.76-0.1a9.834 9.834 0 0 0-4.31 0.85 7.437 7.437 0 0 0-2.84 2.31 9.5 9.5 0 0 0-1.53 3.46 19.039 19.039 0 0 0-0.45 4.21v15.19h-9.27zm31.87 19.11c0.127 2.96 0.89 5.123 2.29 6.49a9.397 9.397 0 0 0 5.307 2.044 9.397 9.397 0 0 0 5.513-1.394 5.772 5.772 0 0 0 2.48-3h8.16c-1.333 4-3.333 6.89-6 8.67a17.333 17.333 0 0 1-9.78 2.68 18.809 18.809 0 0 1-7.17-1.31 15.3 15.3 0 0 1-5.42-3.65 16.287 16.287 0 0 1-3.42-5.61 20.394 20.394 0 0 1-1.21-7.17 19.609 19.609 0 0 1 1.24-7 16.683 16.683 0 0 1 3.52-5.64 16.466 16.466 0 0 1 5.45-3.75 17.5 17.5 0 0 1 7-1.37 16 16 0 0 1 7.5 1.66 15.006 15.006 0 0 1 5.25 4.47 18.39 18.39 0 0 1 3 6.39c0.617 2.449 0.836 4.981 0.65 7.5zm15-5.87a10.756 10.756 0 0 0-2.32-5.35 6.503 6.503 0 0 0-5-1.82 8.083 8.083 0 0 0-3.69 0.75 6.998 6.998 0 0 0-2.34 1.86 6.79 6.79 0 0 0-1.24 2.34 11.185 11.185 0 0 0-0.43 2.22zm33.88-26.07h20.12a23.895 23.895 0 0 1 8.38 1.44 18.105 18.105 0 0 1 6.72 4.3 19.995 19.995 0 0 1 4.44 7.18 29.168 29.168 0 0 1 1.56 10.08 32.218 32.218 0 0 1-1.3 9.39 20.611 20.611 0 0 1-3.95 7.43 18.49 18.49 0 0 1-6.58 4.93 22.262 22.262 0 0 1-9.3 1.79h-20.09zm10.24 38h9.13a13.384 13.384 0 0 0 4.31-0.71 9.538 9.538 0 0 0 3.72-2.39 11.932 11.932 0 0 0 2.6-4.33 18.918 18.918 0 0 0 1-6.53 26.916 26.916 0 0 0-0.68-6.35 12.662 12.662 0 0 0-2.25-4.86 10.067 10.067 0 0 0-4.14-3.1 16.5 16.5 0 0 0-6.36-1.08h-7.31zm44.75-6.06c0.127 2.96 0.887 5.123 2.28 6.49a9.406 9.406 0 0 0 10.83 0.65 5.8 5.8 0 0 0 2.47-3h8.16c-1.333 4-3.333 6.89-6 8.67a17.391 17.391 0 0 1-9.79 2.68 18.812 18.812 0 0 1-7.17-1.31 15.394 15.394 0 0 1-5.42-3.65 16.442 16.442 0 0 1-3.42-5.61 20.632 20.632 0 0 1-1.21-7.17 19.816 19.816 0 0 1 1.24-7 16.372 16.372 0 0 1 9-9.39 17.523 17.523 0 0 1 7-1.37 16 16 0 0 1 7.5 1.66 14.891 14.891 0 0 1 5.25 4.47 18.39 18.39 0 0 1 3 6.39c0.617 2.449 0.836 4.981 0.65 7.5zm15.06-5.87a10.659 10.659 0 0 0-2.31-5.35 6.538 6.538 0 0 0-5.06-1.82 8 8 0 0 0-3.68 0.75 7.01 7.01 0 0 0-2.35 1.86 6.79 6.79 0 0 0-1.24 2.34 10.42 10.42 0 0 0-0.42 2.22zm21.92 9.52c-0.029 0.9 0.185 1.792 0.62 2.58a5.212 5.212 0 0 0 1.6 1.76 6.59 6.59 0 0 0 2.25 1c0.862 0.223 1.75 0.334 2.64 0.33a10.084 10.084 0 0 0 2.04-0.26 6.825 6.825 0 0 0 2-0.72 4.473 4.473 0 0 0 1.47-1.3 3.435 3.435 0 0 0 0.53-1.98 2.54 2.54 0 0 0-0.71-1.8 6.567 6.567 0 0 0-2.06-1.34 20.55 20.55 0 0 0-3.29-1.07c-1.31-0.33-2.79-0.67-4.44-1-1.35-0.31-2.66-0.67-3.94-1.08a13.112 13.112 0 0 1-3.43-1.63 7.905 7.905 0 0 1-2.41-2.54 7.2 7.2 0 0 1-0.91-3.76 10.16 10.16 0 0 1 1.27-5.31 9.248 9.248 0 0 1 3.36-3.33 14.624 14.624 0 0 1 4.69-1.69 28.576 28.576 0 0 1 5.35-0.49 26.545 26.545 0 0 1 5.32 0.52 14.19 14.19 0 0 1 4.59 1.76 10.66 10.66 0 0 1 3.36 3.29 10.993 10.993 0 0 1 1.6 5.19h-8.8a4.048 4.048 0 0 0-2-3.62 9.202 9.202 0 0 0-4.3-0.95c-0.52 0-1.09 0-1.7 0.1a5.716 5.716 0 0 0-1.66 0.43 3.383 3.383 0 0 0-1.27 0.94 2.501 2.501 0 0 0-0.52 1.66 2.558 2.558 0 0 0 0.91 2 7.125 7.125 0 0 0 2.38 1.27c1.101 0.36 2.223 0.654 3.36 0.88 1.26 0.26 2.54 0.54 3.85 0.85 1.353 0.295 2.688 0.666 4 1.11 1.221 0.401 2.373 0.985 3.42 1.73a8.21 8.21 0 0 1 2.41 2.67 7.848 7.848 0 0 1 0.92 3.95 10.253 10.253 0 0 1-4.83 9.19 14.89 14.89 0 0 1-4.93 2c-1.854 0.393-3.745 0.59-5.64 0.59a28.1 28.1 0 0 1-5.74-0.59 14.837 14.837 0 0 1-5-2 10.993 10.993 0 0 1-5.12-9.3zm28.15-22.76h9.26v33.72h-9.26zm48.94 31.57a21.363 21.363 0 0 1-0.23 3 14.155 14.155 0 0 1-0.88 3.33 13.233 13.233 0 0 1-1.83 3.27 11.59 11.59 0 0 1-3.13 2.74 17.538 17.538 0 0 1-4.76 1.92 27.048 27.048 0 0 1-6.66 0.72 21.662 21.662 0 0 1-5-0.62 16.212 16.212 0 0 1-4.7-1.93 11.529 11.529 0 0 1-3.52-3.36 9.647 9.647 0 0 1-1.6-4.92h9.26a5.304 5.304 0 0 0 2.53 3.62 9.142 9.142 0 0 0 4.36 1c2.553 0 4.433-0.783 5.64-2.35a9.189 9.189 0 0 0 1.76-6v-4.43h-0.18a9.186 9.186 0 0 1-4.28 3.94 13.757 13.757 0 0 1-5.83 1.27 14.725 14.725 0 0 1-6.52-1.33 12.36 12.36 0 0 1-4.51-3.66 15.151 15.151 0 0 1-2.57-5.41 25.303 25.303 0 0 1-0.82-6.55 20.993 20.993 0 0 1 0.95-6.3 16.479 16.479 0 0 1 2.78-5.35 13.437 13.437 0 0 1 4.53-3.68 13.662 13.662 0 0 1 6.23-1.37 13.002 13.002 0 0 1 5.84 1.24 10.087 10.087 0 0 1 4.21 4.17h0.13v-4.5h8.8zm-16.69-5.8a7.364 7.364 0 0 0 3.45-0.79 7.171 7.171 0 0 0 2.48-2.08 9.4 9.4 0 0 0 1.47-3 12.52 12.52 0 0 0 0.49-3.49 19.47 19.47 0 0 0-0.39-3.92 9.755 9.755 0 0 0-1.31-3.32 6.71 6.71 0 0 0-2.44-2.29 7.758 7.758 0 0 0-3.75-0.84 6.782 6.782 0 0 0-3.36 0.78 6.995 6.995 0 0 0-2.35 2.12 8.83 8.83 0 0 0-1.37 3.07 14.74 14.74 0 0 0-0.43 3.61c0 1.219 0.12 2.435 0.36 3.63a9.901 9.901 0 0 0 1.24 3.22 7.235 7.235 0 0 0 2.32 2.35 6.537 6.537 0 0 0 3.59 0.95zm24.13-25.77h8.8v4.7h0.2a10.847 10.847 0 0 1 4.56-4.24 13 13 0 0 1 5.74-1.37 15.785 15.785 0 0 1 6.1 1 8.994 8.994 0 0 1 3.75 2.8 10.84 10.84 0 0 1 1.93 4.37c0.384 1.879 0.569 3.793 0.55 5.71v20.74h-9.26v-19c0-2.78-0.447-4.857-1.34-6.23s-2.427-2.06-4.6-2.06c-2.52 0-4.34 0.75-5.48 2.25s-1.69 4-1.69 7.41v17.67h-9.26zm91.44 28.44a15.657 15.657 0 0 1-6.06 5 16.994 16.994 0 0 1-6.72 1.43 23.45 23.45 0 0 1-9.65-1.89 21.106 21.106 0 0 1-7.18-5.15 22.53 22.53 0 0 1-4.5-7.7 28.33 28.33 0 0 1-1.57-9.46 29.297 29.297 0 0 1 1.57-9.65c0.971-2.88 2.5-5.541 4.5-7.83a20.762 20.762 0 0 1 7.18-5.22 23.45 23.45 0 0 1 9.65-1.89c2.376-0.01 4.738 0.354 7 1.08a19.412 19.412 0 0 1 6 3.16 18.009 18.009 0 0 1 4.47 5.16 17.123 17.123 0 0 1 2.18 7h-9.78a9.732 9.732 0 0 0-3.56-5.87 10.308 10.308 0 0 0-6.29-2 12.007 12.007 0 0 0-5.87 1.34 11.086 11.086 0 0 0-3.92 3.59 15.712 15.712 0 0 0-2.18 5.12 25.247 25.247 0 0 0-0.69 5.93 23.581 23.581 0 0 0 0.69 5.71 15.488 15.488 0 0 0 2.18 5 11.29 11.29 0 0 0 3.92 3.56 11.993 11.993 0 0 0 5.87 1.33c3.333 0 5.943-0.857 7.83-2.57a11.201 11.201 0 0 0 3.26-7.47h-10.33v-7.63h19.57v25.17h-6.52zm14.87-28.44h8.81v6.26h0.13a11.253 11.253 0 0 1 1.76-2.9 11.73 11.73 0 0 1 2.54-2.28 12.43 12.43 0 0 1 3.1-1.47c1.087-0.345 2.22-0.52 3.36-0.52 0.679 2e-3 1.354 0.11 2 0.32v8.61c-0.43-0.08-0.95-0.16-1.56-0.22-0.584-0.067-1.172-0.1-1.76-0.1a9.834 9.834 0 0 0-4.31 0.85 7.437 7.437 0 0 0-2.84 2.31 9.323 9.323 0 0 0-1.53 3.46 19.039 19.039 0 0 0-0.45 4.21v15.19h-9.27zm23.16 16.9a20.587 20.587 0 0 1 1.24-7.34 15.428 15.428 0 0 1 9-9.2 19.194 19.194 0 0 1 7.17-1.27 19.445 19.445 0 0 1 7.21 1.27 15.365 15.365 0 0 1 9 9.2 20.587 20.587 0 0 1 1.24 7.34 20.324 20.324 0 0 1-1.24 7.3 15.808 15.808 0 0 1-3.52 5.58 15.645 15.645 0 0 1-5.51 3.58 19.45 19.45 0 0 1-7.21 1.28c-2.45 0.035-4.884-0.4-7.17-1.28a15.413 15.413 0 0 1-9-9.16 20.311 20.311 0 0 1-1.21-7.3zm9.26 0a19.821 19.821 0 0 0 0.39 3.94 10.518 10.518 0 0 0 1.34 3.46 7.069 7.069 0 0 0 2.51 2.44 7.635 7.635 0 0 0 3.91 0.92 7.855 7.855 0 0 0 4-0.92 7 7 0 0 0 2.54-2.44 10.518 10.518 0 0 0 1.34-3.46c0.261-1.297 0.392-2.617 0.39-3.94a20.27 20.27 0 0 0-0.39-4 10.13 10.13 0 0 0-1.34-3.46 7.444 7.444 0 0 0-2.54-2.45 7.656 7.656 0 0 0-4-0.94 7.447 7.447 0 0 0-3.91 0.94 7.529 7.529 0 0 0-2.51 2.45 10.13 10.13 0 0 0-1.34 3.46 20.27 20.27 0 0 0-0.39 4zm63.27 16.82h-8.81v-4.69h-0.19a11.063 11.063 0 0 1-4.57 4.24 13 13 0 0 1-5.74 1.37 15.826 15.826 0 0 1-6.1-1 9.095 9.095 0 0 1-3.75-2.81 10.86 10.86 0 0 1-1.92-4.37 27.17 27.17 0 0 1-0.56-5.71v-20.75h9.26v19c0 2.78 0.443 4.857 1.33 6.23 0.89 1.37 2.43 2 4.6 2 2.52 0 4.347-0.75 5.48-2.25s1.7-3.967 1.7-7.4v-17.58h9.26zm7.04-33.72h8.81v4.31h0.13a10.113 10.113 0 0 1 4.3-4 13.144 13.144 0 0 1 5.74-1.24 14.601 14.601 0 0 1 6.85 1.5 14.065 14.065 0 0 1 4.76 4 16.883 16.883 0 0 1 2.81 5.77 25.95 25.95 0 0 1 0.91 6.88c5e-3 2.205-0.301 4.4-0.91 6.52a16.623 16.623 0 0 1-2.78 5.55 13.995 13.995 0 0 1-4.63 3.88 13.623 13.623 0 0 1-6.49 1.47 13 13 0 0 1-5.74-1.31 11.152 11.152 0 0 1-4.37-3.78h-0.13v16h-9.26zm17 27.66a7.046 7.046 0 0 0 6.29-3.3 9.739 9.739 0 0 0 1.34-3.39 20.12 20.12 0 0 0 0.39-4 18.298 18.298 0 0 0-0.43-4 10.607 10.607 0 0 0-1.4-3.49 7.823 7.823 0 0 0-2.51-2.48 7 7 0 0 0-3.75-0.94 7.192 7.192 0 0 0-3.82 0.94 7.618 7.618 0 0 0-2.47 2.45 10.133 10.133 0 0 0-1.34 3.49 20.82 20.82 0 0 0-0.39 4 18.733 18.733 0 0 0 0.42 4 10.208 10.208 0 0 0 1.37 3.39 7.056 7.056 0 0 0 6.3 3.3zm-277.82-40.56a4.953 4.953 0 0 0-4.574 3.058 4.95 4.95 0 1 0 4.574-3.058z" fill="#fff"/></svg>
